<svg width="56" height="56" viewBox="0 0 56 56" fill="none" xmlns="http://www.w3.org/2000/svg">
<path d="M32.2407 15.064L32.1845 0H23.7593L23.8156 15.064L28.028 20.8321L32.2407 15.064ZM23.8156 40.88V56H32.2407V40.88L28.028 35.112L23.8156 40.88Z" fill="white"/>
<path d="M32.2407 40.88L41.1154 53.088L47.9117 48.16L39.037 35.9522L32.2407 33.7679V40.88ZM23.8155 15.064L14.8846 2.85596L8.08829 7.78401L16.963 19.992L23.8155 22.176V15.064Z" fill="#00F2E6"/>
<path d="M16.963 19.992L2.58366 15.344L0 23.2959L14.3791 28L21.1754 25.7599L16.963 19.992ZM34.8246 30.184L39.037 35.9521L53.4163 40.5999L56 32.648L41.6209 28L34.8246 30.184Z" fill="#00B9F1"/>
<path d="M41.6209 28L56 23.2959L53.4163 15.344L39.037 19.992L34.8246 25.7599L41.6209 28ZM14.3791 28L0 32.648L2.58366 40.5999L16.963 35.9521L21.1754 30.184L14.3791 28Z" fill="#D63AFF"/>
<path d="M16.963 35.9522L8.08829 48.16L14.8846 53.088L23.8155 40.88V33.7679L16.963 35.9522ZM39.037 19.992L47.9117 7.78401L41.1154 2.85596L32.2407 15.064V22.176L39.037 19.992Z" fill="#FB015B"/>
</svg>
