<svg width="54" height="56" viewBox="0 0 54 56" fill="none" xmlns="http://www.w3.org/2000/svg">
<path d="M53.8571 33.5452C53.5325 32.5564 52.6823 31.8678 51.5828 31.7025C51.0643 31.6247 50.4706 31.6578 49.768 31.8035C48.5433 32.0577 47.6347 32.1545 46.9716 32.1732C49.4745 27.9226 51.5096 23.0755 52.6813 18.5128C54.5758 11.1349 53.5634 7.7738 52.3804 6.25352C49.2495 2.22949 44.6817 0.0677469 39.171 0.00160146C36.2313 -0.0345552 33.6506 0.549269 32.3044 0.969112C31.0509 0.746642 29.7032 0.622433 28.2891 0.599463C25.6382 0.556926 23.296 1.1382 21.2947 2.33286C20.1867 1.95598 18.4085 1.42469 16.3549 1.08566C11.5251 0.28809 7.63245 0.90956 4.78514 2.93284C1.33733 5.38257 -0.260975 9.63885 0.0346237 15.5834C0.128505 17.4708 1.17811 23.2133 2.83076 28.6594C3.78057 31.7897 4.79339 34.3892 5.84109 36.3863C7.32691 39.2182 8.91676 40.8859 10.7016 41.4848C11.7019 41.82 13.5195 42.0548 15.4311 40.4533C15.6735 40.7485 15.9968 41.0418 16.4258 41.3142C16.9707 41.6598 17.6369 41.9423 18.3023 42.1097C20.7003 42.7126 22.9465 42.5618 24.8628 41.7166C24.8747 42.0595 24.8837 42.387 24.8914 42.6699C24.904 43.1287 24.9167 43.5785 24.9334 43.9992C25.047 46.8436 25.2394 49.0554 25.8095 50.6029C25.8407 50.6879 25.8828 50.8177 25.9272 50.9553C26.2116 51.8311 26.6872 53.2974 27.897 54.4457C29.1498 55.6352 30.6653 56 32.0532 56C32.7493 56 33.4134 55.9081 33.9959 55.7826C36.0723 55.3349 38.4305 54.6531 40.1365 52.2097C41.7494 49.8999 42.5334 46.421 42.6753 40.9395C42.6936 40.7844 42.7108 40.6363 42.7269 40.4954L42.7607 40.2057L43.1407 40.2393L43.2386 40.2459C45.3534 40.3429 47.9394 39.8918 49.5276 39.1497C50.7825 38.564 54.8039 36.4284 53.8571 33.5452Z" fill="black"/>
<path d="M50.241 34.1059C43.9526 35.4107 43.5202 33.2692 43.5202 33.2692C50.1596 23.3595 52.9352 10.7806 50.5402 7.70192C44.0057 -0.696004 32.6945 3.2757 32.5057 3.37864L32.445 3.3897C31.2026 3.13022 29.8123 2.97581 28.2495 2.95008C25.4043 2.90329 23.2459 3.70044 21.6081 4.94975C21.6081 4.94975 1.42995 -3.4118 2.36855 15.4658C2.56815 19.4818 8.09107 45.853 14.6784 37.8876C17.0861 34.9749 19.4126 32.5122 19.4126 32.5122C20.568 33.2843 21.9512 33.6782 23.4013 33.5367L23.514 33.4406C23.4789 33.8021 23.495 34.1558 23.5591 34.5746C21.862 36.4818 22.3608 36.8166 18.9684 37.5191C15.5356 38.2307 17.5521 39.4975 18.8688 39.8288C20.465 40.2302 24.1577 40.7989 26.6527 37.2855L26.5533 37.6864C27.2181 38.2222 27.685 41.1709 27.6067 43.8441C27.5285 46.5172 27.4763 48.3524 28 49.786C28.5242 51.2195 29.0462 54.4448 33.506 53.4837C37.2323 52.6804 39.1634 50.5988 39.4322 47.1265C39.6227 44.6581 40.0542 45.0231 40.0813 42.816L40.4274 41.7713C40.8264 38.4251 40.4909 37.3455 42.7865 37.8477L43.3447 37.897C45.0342 37.9742 47.2459 37.6235 48.5439 37.0167C51.3388 35.7121 52.9965 33.5335 50.2406 34.1059H50.241Z" fill="#336791"/>
<path d="M22.7892 17.2617C22.2225 17.1824 21.7093 17.2558 21.4497 17.4536C21.3038 17.5648 21.2585 17.6937 21.2463 17.7824C21.2137 18.0174 21.3774 18.2773 21.478 18.4113C21.7626 18.7907 22.1783 19.0515 22.5898 19.1089C22.6494 19.1173 22.7088 19.1214 22.7678 19.1212C23.454 19.1212 24.0779 18.5838 24.1329 18.1871C24.2016 17.6903 23.4846 17.3589 22.7892 17.2617ZM41.562 17.2775C41.5079 16.888 40.819 16.777 40.1652 16.8685C39.5123 16.9599 38.8792 17.2564 38.9321 17.6467C38.9744 17.9502 39.5193 18.4683 40.1642 18.4683C40.2187 18.4683 40.2737 18.4645 40.3291 18.4568C40.7596 18.3968 41.0755 18.1218 41.2256 17.9634C41.454 17.7218 41.5864 17.4525 41.562 17.2775Z" fill="white"/>
<path d="M52.3334 33.9576C52.0937 33.2283 51.3219 32.9937 50.0397 33.26C46.2326 34.0504 44.8693 33.5029 44.4216 33.1713C47.3808 28.6368 49.8151 23.1555 51.1284 18.0415C51.7505 15.619 52.0941 13.3692 52.1222 11.5354C52.1533 9.52273 51.8124 8.04371 51.1096 7.14022C48.2758 3.49796 44.1167 1.54423 39.0822 1.49063C35.6211 1.4515 32.6968 2.34244 32.13 2.59298C30.9361 2.29437 29.6347 2.11104 28.2178 2.08764C25.6196 2.04532 23.3736 2.67104 21.5142 3.94652C20.7065 3.64408 18.6191 2.92328 16.0663 2.50961C11.6531 1.79498 8.14606 2.33648 5.6434 4.11986C2.65718 6.248 1.27856 10.0521 1.54561 15.4263C1.63548 17.2343 2.65971 22.7965 4.27599 28.1232C6.40354 35.1342 8.71632 39.1031 11.1496 39.9196C11.4344 40.0151 11.7628 40.0819 12.125 40.0819C13.0127 40.0819 14.101 39.6795 15.2332 38.3102C16.6143 36.6438 18.0429 35.0177 19.5173 33.4342C20.4739 33.9506 21.5248 34.239 22.5995 34.2679C22.6018 34.2963 22.6043 34.3245 22.6069 34.3526C22.4219 34.5745 22.2408 34.7996 22.0635 35.0279C21.3188 35.9788 21.1638 36.1768 18.7667 36.6732C18.0848 36.8149 16.2738 37.1902 16.2471 38.4672C16.2184 39.8624 18.388 40.4484 18.6352 40.5105C19.4966 40.7274 20.3265 40.8344 21.1179 40.8344C23.0427 40.8344 24.7366 40.1981 26.0903 38.9668C26.0486 43.9407 26.2548 48.8418 26.8485 50.3351C27.3348 51.5576 28.5227 54.5452 32.275 54.545C32.8256 54.545 33.4316 54.4806 34.0983 54.3368C38.0144 53.4924 39.7151 51.7514 40.3729 47.913C40.7249 45.8617 41.329 40.9633 41.6132 38.3358C42.2129 38.524 42.9849 38.6101 43.8194 38.6099C45.56 38.6099 47.5685 38.2379 48.8281 37.6499C50.2431 36.9888 52.7965 35.3669 52.3334 33.9576ZM43.0075 16.2026C42.9946 16.9782 42.8884 17.6824 42.776 18.4175C42.6548 19.208 42.5296 20.0254 42.4981 21.0176C42.467 21.9832 42.5869 22.987 42.7028 23.958C42.9371 25.9189 43.1775 27.9378 42.2469 29.9298C42.0926 29.6541 41.9549 29.3694 41.8346 29.0771C41.7189 28.7951 41.4677 28.3421 41.1199 27.7151C39.7669 25.2743 36.5984 19.5585 38.2204 17.2262C38.7035 16.532 39.9297 15.8182 43.0075 16.2026ZM39.2768 3.06132C43.7877 3.16149 47.356 4.85894 49.8824 8.10624C51.8201 10.597 49.6864 21.9304 43.5095 31.7078C43.4473 31.6284 43.3849 31.5492 43.3221 31.4703L43.2439 31.372C44.8401 28.7204 44.528 26.0969 44.2501 23.771C44.136 22.8165 44.0281 21.9149 44.0556 21.068C44.0839 20.1704 44.2019 19.4005 44.3161 18.6561C44.4563 17.7388 44.599 16.7896 44.5597 15.6706C44.5891 15.5532 44.6009 15.4146 44.5855 15.2499C44.4851 14.1769 43.2671 10.9656 40.7848 8.05902C39.4269 6.46919 37.4467 4.69007 34.743 3.49009C35.9059 3.24763 37.4962 3.02155 39.2768 3.06132ZM14.035 37.3081C12.7875 38.8169 11.926 38.5276 11.6427 38.4328C9.7968 37.8134 7.65487 33.8889 5.76646 27.6657C4.13242 22.2809 3.17754 16.8661 3.10184 15.3478C2.86333 10.5458 4.02057 7.19913 6.54162 5.40066C10.6445 2.47409 17.39 4.22578 20.1005 5.11417C20.0616 5.15288 20.021 5.18903 19.9825 5.22838C15.5345 9.74669 15.6401 17.4664 15.6511 17.9383C15.6506 18.1204 15.6659 18.3781 15.6866 18.7327C15.7631 20.0311 15.9056 22.4477 15.525 25.1843C15.1715 27.7274 15.9509 30.2165 17.6629 32.0135C17.8386 32.1976 18.0233 32.3728 18.2163 32.5384C17.4542 33.3593 15.798 35.1748 14.035 37.3081ZM18.788 30.929C17.4082 29.4806 16.7814 27.466 17.0684 25.4013C17.4701 22.5104 17.3219 19.9926 17.2422 18.64C17.231 18.4507 17.221 18.2848 17.2153 18.154C17.8651 17.5744 20.8763 15.9516 23.0237 16.4465C24.0035 16.6722 24.6006 17.3434 24.8489 18.4979C26.1336 24.475 25.0189 26.9662 24.1232 28.9682C23.9386 29.3806 23.7642 29.7705 23.6153 30.1737L23.4999 30.4855C23.2076 31.2737 22.9357 32.0066 22.7672 32.7026C21.3002 32.6983 19.8732 32.0679 18.788 30.9288M19.0132 38.9896C18.5848 38.882 18.1996 38.695 17.9736 38.54C18.1624 38.4506 18.4984 38.329 19.0811 38.2082C21.9011 37.6243 22.3367 37.2121 23.2878 35.9975C23.5058 35.7189 23.753 35.4033 24.0953 35.0187L24.0957 35.0183C24.6055 34.444 24.8387 34.5414 25.2616 34.718C25.6044 34.8605 25.9382 35.2927 26.0736 35.7682C26.1376 35.9928 26.2095 36.419 25.9742 36.7508C23.9875 39.5489 21.0924 39.513 19.0132 38.9896ZM33.7718 52.804C30.3219 53.5475 29.1004 51.7769 28.2954 49.7528C27.7759 48.446 27.5205 42.5533 27.7017 36.0458C27.704 35.9592 27.6917 35.8756 27.6681 35.7969C27.6469 35.6415 27.6147 35.4879 27.5716 35.3371C27.3023 34.3902 26.6457 33.5982 25.8581 33.2698C25.5452 33.1394 24.9709 32.9001 24.2807 33.0777C24.4279 32.4678 24.6831 31.7789 24.9599 31.033L25.076 30.7193C25.2066 30.3656 25.3707 29.9991 25.5441 29.6112C26.4814 27.5166 27.7651 24.6477 26.3719 18.1665C25.8501 15.7389 24.1073 14.5534 21.4656 14.8288C19.8818 14.9937 18.4328 15.6364 17.7101 16.005C17.5547 16.0841 17.4126 16.1607 17.2798 16.2351C17.4815 13.7892 18.2436 9.21816 21.0943 6.32605C22.8892 4.50546 25.2796 3.60622 28.192 3.65471C33.9306 3.74915 37.6106 6.71144 39.6874 9.18009C41.4771 11.3072 42.4461 13.45 42.8328 14.6057C39.9244 14.3082 37.9464 14.8856 36.9437 16.3276C34.7622 19.4643 38.1371 25.5523 39.7591 28.4782C40.0566 29.0144 40.3133 29.4778 40.394 29.6748C40.9222 30.9624 41.606 31.822 42.1053 32.4495C42.2583 32.6417 42.4068 32.8283 42.5197 32.9912C41.6388 33.2466 40.0566 33.8368 40.2008 36.787C40.0845 38.2673 39.2575 45.1979 38.8374 47.6465C38.2828 50.8815 37.0993 52.0862 33.7718 52.804ZM48.172 36.2283C47.2713 36.6487 45.7639 36.9642 44.332 37.032C42.7504 37.1064 41.9452 36.8538 41.7557 36.6983C41.6669 34.8598 42.3471 34.6678 43.0671 34.4645C43.1802 34.4326 43.2906 34.4013 43.3972 34.3639C43.4633 34.4182 43.536 34.4718 43.6154 34.5246C44.8866 35.3686 47.1539 35.4596 50.355 34.795L50.3901 34.788C49.9583 35.194 49.2195 35.7389 48.172 36.2283Z" fill="white"/>
</svg>
