<svg width="65" height="56" viewBox="0 0 65 56" fill="none" xmlns="http://www.w3.org/2000/svg">
<path d="M62.4491 43.1644C58.9797 44.9888 41.0116 52.3908 37.1797 54.4238C33.3479 56.4567 31.2248 56.4046 28.2215 54.945C25.2182 53.4855 6.11081 45.7707 2.64144 44.1027C0.932654 43.2686 0.0523682 42.591 0.0523682 41.9133V35.2932C0.0523682 35.2932 24.9075 29.8199 28.9465 28.4125C32.9854 26.953 34.3317 26.9008 37.7493 28.1519C41.1669 29.4029 61.6206 33.1039 64.9864 34.355V40.8708C64.9864 41.5485 64.2097 42.2782 62.4491 43.1644Z" fill="#A41E11"/>
<path d="M62.4493 36.5963C58.98 38.4208 41.0118 45.8228 37.1799 47.8557C33.3481 49.8887 31.2251 49.8365 28.2217 48.377C25.2184 46.9174 6.11102 39.1505 2.64165 37.4825C-0.775928 35.8144 -0.879491 34.6676 2.48631 33.3645C5.85211 32.0092 24.8559 24.5029 28.8949 23.0955C32.9339 21.6359 34.2802 21.5838 37.6978 22.8349C41.1153 24.0859 58.98 31.2273 62.3458 32.4783C65.8151 33.7294 65.9187 34.7719 62.4493 36.5963Z" fill="#D82C20"/>
<path d="M62.4491 32.4262C58.9797 34.2507 41.0116 41.6527 37.1797 43.6856C33.3479 45.6664 31.2248 45.6664 28.2215 44.2069C25.2182 42.7473 6.11081 34.9804 2.64144 33.3124C0.932654 32.4784 0.0523682 31.8007 0.0523682 31.1231V24.503C0.0523682 24.503 24.9075 19.0296 28.9465 17.6222C32.9854 16.1627 34.3317 16.1105 37.7493 17.3616C41.1669 18.6126 61.6206 22.3136 64.9864 23.5647V30.0805C64.9864 30.7582 64.2097 31.488 62.4491 32.4262Z" fill="#A41E11"/>
<path d="M62.4491 25.8062C58.9798 27.6306 41.0116 35.0326 37.1797 37.0656C33.3479 39.0464 31.2249 39.0464 28.2215 37.5868C25.2182 36.1273 6.11081 28.3604 2.64145 26.6923C-0.827916 25.0243 -0.879698 23.8775 2.4861 22.5743C5.8519 21.219 24.8557 13.7128 28.8947 12.3053C32.9336 10.8458 34.28 10.7936 37.6975 12.0447C41.1151 13.2957 58.9798 20.4371 62.3456 21.6882C65.8149 22.9392 65.9185 23.9817 62.4491 25.8062Z" fill="#D82C20"/>
<path d="M62.4492 21.2191C58.9798 23.0435 41.0116 30.4455 37.1798 32.4785C33.348 34.4593 31.2249 34.4593 28.2216 32.9997C25.2183 31.5923 6.11089 23.8254 2.64153 22.1574C0.932739 21.3233 0.000671387 20.6457 0.000671387 19.968V13.3479C0.000671387 13.3479 24.8558 7.87462 28.8948 6.46719C32.9337 5.00764 34.28 4.95551 37.6976 6.20656C41.1152 7.4576 61.5689 11.1586 64.9347 12.4096V18.9255C64.9865 19.6031 64.2098 20.2808 62.4492 21.2191Z" fill="#A41E11"/>
<path d="M62.4491 14.5989C58.9798 16.4233 41.0116 23.8253 37.1797 25.8583C33.3479 27.8391 31.2249 27.8391 28.2215 26.3796C25.2182 24.92 6.11081 17.2052 2.64145 15.5372C-0.827916 13.8691 -0.879698 12.7223 2.4861 11.4192C5.8519 10.0639 24.8557 2.5576 28.8947 1.15018C32.9336 -0.309375 34.28 -0.361502 37.6975 0.889542C41.1151 2.14059 58.9798 9.28196 62.3456 10.533C65.8149 11.784 65.9185 12.8266 62.4491 14.5989Z" fill="#D82C20"/>
<path d="M41.0116 8.23951L35.4192 8.86504L34.1246 11.8884L32.1052 8.50015L25.6325 7.92675L30.4482 6.15444L28.9983 3.44385L33.555 5.21616L37.8011 3.80874L36.6619 6.62358L41.0116 8.23951ZM33.814 23.0435L23.3023 18.6649L38.3707 16.3713L33.814 23.0435Z" fill="white"/>
<path d="M19.2633 16.2148C23.696 16.2148 27.2895 14.8145 27.2895 13.0872C27.2895 11.3599 23.696 9.95959 19.2633 9.95959C14.8306 9.95959 11.2372 11.3599 11.2372 13.0872C11.2372 14.8145 14.8306 16.2148 19.2633 16.2148Z" fill="white"/>
<path d="M47.6914 9.07349L56.5978 12.6181L47.6914 16.1627V9.07349Z" fill="#7A0C00"/>
<path d="M37.8529 13.0351L47.6914 9.07349V16.1627L46.7075 16.5797L37.8529 13.0351Z" fill="#AD2115"/>
</svg>
